<svg id="Capa_1" enable-background="new 0 0 512 512" height="512" viewBox="0 0 512 512" width="512" xmlns="http://www.w3.org/2000/svg"><g><g fill="#f4da90"><path d="m477.194 291.643h-6.149v-6.157c0-8.294-6.716-15.018-15-15.018s-15 6.724-15 15.018v6.157h-6.15c-8.284 0-15 6.724-15 15.018s6.716 15.018 15 15.018h6.15v6.157c0 8.294 6.716 15.018 15 15.018s15-6.724 15-15.018v-6.157h6.149c8.284 0 15-6.724 15-15.018 0-8.295-6.716-15.018-15-15.018z"/><path d="m118.12 382.507h-6.15v-6.157c0-8.294-6.716-15.018-15-15.018s-15 6.724-15 15.018v6.157h-6.15c-8.284 0-15 6.724-15 15.018s6.716 15.018 15 15.018h6.15v6.157c0 8.294 6.716 15.018 15 15.018s15-6.724 15-15.018v-6.157h6.15c8.284 0 15-6.724 15-15.018s-6.716-15.018-15-15.018z"/></g><g><g><g><path d="m256 26.613c-13.943-22.317-43.195-32.2-69.422-23.442-78.139 26.093-140.367 88.581-166.032 117.458l.436 30.699c33.28 37.342 125.93 128.805 235.018 128.805 114.984 0 211.705-101.618 239.888-134.364 4.959-5.762 4.986-14.281.027-20.043-22.251-25.853-87.369-94.798-170.493-122.554-26.227-8.758-55.478 1.124-69.422 23.441z" fill="#ffddce"/><path d="m495.915 125.727c-22.251-25.854-87.369-94.799-170.493-122.555-26.227-8.758-55.478 1.124-69.422 23.442h.018v253.52h-.018c114.984 0 211.705-101.618 239.888-134.364 4.959-5.762 4.985-14.281.027-20.043z" fill="#e9a0c0"/></g><path d="m256.018 280.13v-64.606s-10.961-40.976-62-64.2l-173.036.003c33.28 37.342 125.93 128.806 235.018 128.806.07-.022.147-.003.018-.003z" fill="#e9a0c0"/><path d="m375.166 130.174 116.289-9.546c-25.666-28.876-87.894-91.364-166.033-117.456-26.227-8.758-55.478 1.124-69.422 23.442v94.016c0-.001 119.166 9.544 119.166 9.544z" fill="#d86eaf"/><g><path d="m16.085 125.727c-4.959 5.762-4.932 14.281.027 20.043 1.443 1.676 3.075 3.542 4.87 5.557h470.035c1.795-2.015 3.427-3.88 4.87-5.557 4.959-5.762 4.986-14.281.027-20.043-1.333-1.549-2.825-3.257-4.461-5.098h-470.907c-1.636 1.841-3.127 3.549-4.461 5.098z" fill="#ffbca7"/><path d="m495.915 125.727c-1.333-1.549-2.825-3.257-4.461-5.098h-235.454v30.697h235.017c1.795-2.015 3.427-3.88 4.87-5.557 4.96-5.761 4.986-14.28.028-20.042z" fill="#a82ac5"/></g></g><g><g><path d="m322.738 451.354h-66.72v-249.07c0-3.686 2.985-6.674 6.666-6.674 33.167 0 60.053 26.919 60.053 60.126v195.618z" fill="#d86eaf"/><path d="m289.378 201.877v249.477h33.36v-195.618c0-23.603-13.592-44.018-33.36-53.859z" fill="#a82ac5"/></g><g><path d="m342.197 487.248h-105.638v-118.962c0-3.682 2.985-6.666 6.666-6.666h92.306c3.682 0 6.666 2.985 6.666 6.666z" fill="#f4da90"/><path d="m335.531 361.62h-46.153v125.629h52.819v-118.955c0-3.686-2.984-6.674-6.666-6.674z" fill="#e7aa60"/></g><g><path d="m214.339 511.995v-80.887c0-3.686 2.985-6.674 6.666-6.674h136.746c3.682 0 6.666 2.988 6.666 6.674v80.887z" fill="#674e55"/><path d="m357.751 424.434h-68.373v87.566h75.039v-80.892c0-3.686-2.984-6.674-6.666-6.674z" fill="#543f46"/></g></g></g></g></svg>